<svg width="109" height="21" viewBox="0 0 109 21" fill="none" xmlns="http://www.w3.org/2000/svg">
<path d="M4.16743 16.892H10.6074V20H0.24743V0.456H4.16743V16.892ZM12.091 12.188C12.091 10.62 12.399 9.22933 13.015 8.016C13.6497 6.80267 14.499 5.86933 15.563 5.216C16.6457 4.56267 17.8497 4.236 19.175 4.236C20.3323 4.236 21.3403 4.46933 22.199 4.936C23.0763 5.40267 23.7763 5.99067 24.299 6.7V4.488H28.247V20H24.299V17.732C23.795 18.46 23.095 19.0667 22.199 19.552C21.3217 20.0187 20.3043 20.252 19.147 20.252C17.8403 20.252 16.6457 19.916 15.563 19.244C14.499 18.572 13.6497 17.6293 13.015 16.416C12.399 15.184 12.091 13.7747 12.091 12.188ZM24.299 12.244C24.299 11.292 24.1123 10.48 23.739 9.808C23.3657 9.11733 22.8617 8.59467 22.227 8.24C21.5923 7.86667 20.911 7.68 20.183 7.68C19.455 7.68 18.783 7.85733 18.167 8.212C17.551 8.56667 17.047 9.08933 16.655 9.78C16.2817 10.452 16.095 11.2547 16.095 12.188C16.095 13.1213 16.2817 13.9427 16.655 14.652C17.047 15.3427 17.551 15.8747 18.167 16.248C18.8017 16.6213 19.4737 16.808 20.183 16.808C20.911 16.808 21.5923 16.6307 22.227 16.276C22.8617 15.9027 23.3657 15.38 23.739 14.708C24.1123 14.0173 24.299 13.196 24.299 12.244ZM38.5436 16.388L42.4636 4.488H46.6356L40.8956 20H36.1356L30.4236 4.488H34.6236L38.5436 16.388ZM47.8293 12.188C47.8293 10.62 48.1373 9.22933 48.7533 8.016C49.3879 6.80267 50.2373 5.86933 51.3013 5.216C52.3839 4.56267 53.5879 4.236 54.9133 4.236C56.0706 4.236 57.0786 4.46933 57.9373 4.936C58.8146 5.40267 59.5146 5.99067 60.0373 6.7V4.488H63.9853V20H60.0373V17.732C59.5333 18.46 58.8333 19.0667 57.9373 19.552C57.0599 20.0187 56.0426 20.252 54.8853 20.252C53.5786 20.252 52.3839 19.916 51.3013 19.244C50.2373 18.572 49.3879 17.6293 48.7533 16.416C48.1373 15.184 47.8293 13.7747 47.8293 12.188ZM60.0373 12.244C60.0373 11.292 59.8506 10.48 59.4773 9.808C59.1039 9.11733 58.5999 8.59467 57.9653 8.24C57.3306 7.86667 56.6493 7.68 55.9213 7.68C55.1933 7.68 54.5213 7.85733 53.9053 8.212C53.2893 8.56667 52.7853 9.08933 52.3933 9.78C52.0199 10.452 51.8333 11.2547 51.8333 12.188C51.8333 13.1213 52.0199 13.9427 52.3933 14.652C52.7853 15.3427 53.2893 15.8747 53.9053 16.248C54.5399 16.6213 55.2119 16.808 55.9213 16.808C56.6493 16.808 57.3306 16.6307 57.9653 16.276C58.5999 15.9027 59.1039 15.38 59.4773 14.708C59.8506 14.0173 60.0373 13.196 60.0373 12.244Z" fill="#E93A72"/>
<path d="M77.8698 20H75.3498L69.6438 11.378V20H67.1238V7.418H69.6438L75.3498 16.058V7.418H77.8698V20ZM84.7882 20.162C83.8282 20.162 82.9642 19.952 82.1962 19.532C81.4282 19.1 80.8222 18.494 80.3782 17.714C79.9462 16.934 79.7302 16.034 79.7302 15.014C79.7302 13.994 79.9522 13.094 80.3962 12.314C80.8522 11.534 81.4702 10.934 82.2502 10.514C83.0302 10.082 83.9002 9.866 84.8602 9.866C85.8202 9.866 86.6902 10.082 87.4702 10.514C88.2502 10.934 88.8622 11.534 89.3062 12.314C89.7622 13.094 89.9902 13.994 89.9902 15.014C89.9902 16.034 89.7562 16.934 89.2882 17.714C88.8322 18.494 88.2082 19.1 87.4162 19.532C86.6362 19.952 85.7602 20.162 84.7882 20.162ZM84.7882 17.966C85.2442 17.966 85.6702 17.858 86.0662 17.642C86.4742 17.414 86.7982 17.078 87.0382 16.634C87.2782 16.19 87.3982 15.65 87.3982 15.014C87.3982 14.066 87.1462 13.34 86.6422 12.836C86.1502 12.32 85.5442 12.062 84.8242 12.062C84.1042 12.062 83.4982 12.32 83.0062 12.836C82.5262 13.34 82.2862 14.066 82.2862 15.014C82.2862 15.962 82.5202 16.694 82.9882 17.21C83.4682 17.714 84.0682 17.966 84.7882 17.966ZM94.7727 12.098V16.922C94.7727 17.258 94.8507 17.504 95.0067 17.66C95.1747 17.804 95.4507 17.876 95.8347 17.876H97.0047V20H95.4207C93.2967 20 92.2347 18.968 92.2347 16.904V12.098H91.0467V10.028H92.2347V7.562H94.7727V10.028H97.0047V12.098H94.7727ZM108.087 14.798C108.087 15.158 108.063 15.482 108.015 15.77H100.725C100.785 16.49 101.037 17.054 101.481 17.462C101.925 17.87 102.471 18.074 103.119 18.074C104.055 18.074 104.721 17.672 105.117 16.868H107.835C107.547 17.828 106.995 18.62 106.179 19.244C105.363 19.856 104.361 20.162 103.173 20.162C102.213 20.162 101.349 19.952 100.581 19.532C99.8252 19.1 99.2312 18.494 98.7992 17.714C98.3792 16.934 98.1692 16.034 98.1692 15.014C98.1692 13.982 98.3792 13.076 98.7992 12.296C99.2192 11.516 99.8072 10.916 100.563 10.496C101.319 10.076 102.189 9.866 103.173 9.866C104.121 9.866 104.967 10.07 105.711 10.478C106.467 10.886 107.049 11.468 107.457 12.224C107.877 12.968 108.087 13.826 108.087 14.798ZM105.477 14.078C105.465 13.43 105.231 12.914 104.775 12.53C104.319 12.134 103.761 11.936 103.101 11.936C102.477 11.936 101.949 12.128 101.517 12.512C101.097 12.884 100.839 13.406 100.743 14.078H105.477Z" fill="white"/>
</svg>
