<?xml version="1.0" standalone="no"?>
<!DOCTYPE svg PUBLIC "-//W3C//DTD SVG 20010904//EN"
 "http://www.w3.org/TR/2001/REC-SVG-20010904/DTD/svg10.dtd">
<svg version="1.0" xmlns="http://www.w3.org/2000/svg"
 width="1024.000000pt" height="1024.000000pt" viewBox="0 0 1024.000000 1024.000000"
 preserveAspectRatio="xMidYMid meet">
<metadata>
Created by potrace 1.11, written by Peter Selinger 2001-2013
</metadata>
<g transform="translate(0.000000,1024.000000) scale(0.100000,-0.100000)"
fill="#000000" stroke="none">
<path d="M1368 9161 c-117 -38 -207 -111 -258 -211 -52 -101 -49 132 -49
-3826 -1 -3277 1 -3686 14 -3739 9 -32 20 -64 25 -69 4 -6 9 -15 9 -21 1 -21
75 -112 119 -145 26 -19 74 -46 107 -60 l60 -25 2443 -3 2442 -2 1 1252 c1
689 3 1264 5 1278 12 93 75 203 151 266 68 56 125 82 213 98 14 2 589 5 1278
5 l1252 1 -2 2443 -3 2442 -25 60 c-50 117 -127 195 -242 244 l-63 26 -3710 2
c-3565 2 -3712 1 -3767 -16z"/>
<path d="M6860 2219 l0 -1162 108 6 c115 6 164 19 233 63 57 35 1878 1855
1913 1911 42 68 56 121 63 236 l6 107 -1162 0 -1161 0 0 -1161z"/>
</g>
</svg>
